<?xml version="1.0" encoding="iso-8859-1"?>
<!-- Generator: Adobe Illustrator 15.0.0, SVG Export Plug-In . SVG Version: 6.00 Build 0)  -->
<!DOCTYPE svg PUBLIC "-//W3C//DTD SVG 1.1//EN" "http://www.w3.org/Graphics/SVG/1.1/DTD/svg11.dtd">
<svg xmlns="http://www.w3.org/2000/svg" xmlns:xlink="http://www.w3.org/1999/xlink" version="1.1" id="Layer_1" x="0px" y="0px" width="512" height="512" viewBox="0 0 128 128" style="enable-background:new 0 0 128 128;" xml:space="preserve">
<g>
	<circle style="fill:#2D4452;" cx="64" cy="64" r="64"/>
	
		<rect x="37.005" y="54.002" transform="matrix(-0.7661 -0.6428 0.6428 -0.7661 68.0517 142.7719)" style="fill:#B3B3B3;" width="46.003" height="10.001"/>
	<path style="fill:#A6A6A6;" d="M45.596,40.386l-6.429,7.661L43.879,52H44c3.855,0,7.083-2.742,7.834-6.379L45.596,40.386z"/>
	<path style="fill:#CC584C;" d="M67.288,55.068c0.946,0.947,0.946,2.497,0,3.444l-8.237,8.237c-0.945,0.946-2.496,0.946-3.443,0   l-2.396-2.396c-0.945-0.948-0.945-2.498,0-3.445l8.236-8.236c0.947-0.948,2.498-0.948,3.445,0L67.288,55.068z"/>
	<path style="fill:#E6E6E6;" d="M119,96.725V50.108c0-5.703-4.675-9.108-10.378-9.108H93.658c-2.518,0-4.945,0.41-6.833,2.076   l-8.177,7.077C76.761,51.82,74.333,53,71.813,53h-4.494L53,67.417v57.039c0,0.885,0.12,1.772,0.323,2.642   C56.797,127.68,60.359,128,64,128C87.387,128,107.834,115.45,119,96.725z M97.564,46h9.742c2.02,0,3.654,1.482,3.654,3.5   s-1.636,3.5-3.654,3.5h-9.742c-2.02,0-3.654-1.482-3.654-3.5S95.546,46,97.564,46z"/>
	<path style="fill:#CCCCCC;" d="M97.564,46h-1.219c-2.019,0-3.654,1.482-3.654,3.5s1.637,3.5,3.654,3.5h1.219   c-2.02,0-3.654-1.482-3.654-3.5S95.546,46,97.564,46z"/>
	<path style="fill:#CCCCCC;" d="M119,96.725V50.108c0-5.703-4.675-9.108-10.378-9.108h-4.872c5.703,0,10.25,3.405,10.25,9.108   v53.819C115.823,101.646,117.498,99.244,119,96.725z"/>
	<path style="fill:#B3B3B3;" d="M103.148,77.034L85.993,94.189L68.838,77.034c-0.951-0.952-2.492-0.952-3.443,0   c-0.953,0.95-0.953,2.493,0,3.444l17.154,17.155L65.395,114.79c-0.953,0.951-0.953,2.494,0,3.444   c0.476,0.476,1.099,0.714,1.722,0.714c0.622,0,1.247-0.238,1.723-0.714l17.155-17.156l15.076,15.076   c1.336-0.951,2.64-1.943,3.896-2.992L89.439,97.634l17.154-17.155c0.952-0.951,0.952-2.494,0-3.444   C105.643,76.083,104.102,76.083,103.148,77.034z"/>
	<path style="fill:#E16B5A;" d="M44,24H14.057C8.578,30.832,4.471,38.806,2.154,47.516C3.247,49.017,5.014,50,7,50h37   c3.3,0,6-2.7,6-6V30C50,26.7,47.3,24,44,24z M30,45c0,1.1-0.9,2-2,2H9c-1.1,0-2-0.9-2-2v-5c0-1.1,0.9-2,2-2h19c1.1,0,2,0.9,2,2V45z   "/>
	<path style="fill:#CC6152;" d="M44,24h-4.154C43.146,24,46,26.7,46,30v14c0,3.3-2.854,6-6.154,6H44c3.3,0,6-2.7,6-6V30   C50,26.7,47.3,24,44,24z"/>
	<path style="fill:#CCCCCC;" d="M30,40h-9.162l-9.154,3.051c-0.522,0.175-0.807,0.741-0.632,1.265C11.191,44.735,11.581,45,12,45   c0.104,0,0.211-0.017,0.316-0.052L21.162,42H30V40z"/>
</g>
</svg>
