<?xml version="1.0" encoding="iso-8859-1"?>
<!-- Generator: Adobe Illustrator 19.0.0, SVG Export Plug-In . SVG Version: 6.00 Build 0)  -->
<svg version="1.1" id="Layer_1" xmlns="http://www.w3.org/2000/svg" xmlns:xlink="http://www.w3.org/1999/xlink" x="0px" y="0px"
	 viewBox="0 0 512 512" style="enable-background:new 0 0 512 512;" xml:space="preserve">
<g>
	<g>
		<g>
			<path d="M146.712,357.556h-28c-4.385,0-7.939,3.553-7.939,7.939s3.553,7.939,7.939,7.939h28c4.385,0,7.939-3.553,7.939-7.939
				S151.097,357.556,146.712,357.556z"/>
			<path d="M499.786,449.765h-37.911V337.709c0-10.213-8.31-18.523-18.523-18.523h-1.589V152.609h29.693
				c10.213,0,18.523-8.31,18.523-18.523V41.026c0-10.213-8.31-18.523-18.523-18.523H40.185c-10.213,0-18.523,8.31-18.523,18.523
				v93.059c0,10.213,8.31,18.523,18.523,18.523h296.789v166.577h-1.589c-10.213,0-18.523,8.31-18.523,18.523v112.055h-66.808
				v-56.706c5.952-2.519,10.964-6.85,14.706-12.774c4.886-7.732,7.715-18.387,8.181-30.813c0.308-8.222-0.424-16.95-2.053-25.147
				c0.427-0.344,0.843-0.706,1.244-1.088c4.116-3.922,6.292-9.337,6.292-15.662c0-11.265-6.64-21.124-12.211-27.411
				c-4.677-5.28-10.557-10.192-16.158-13.601v-8.891c0-10.852-8.828-19.679-19.678-19.679H107.983
				c-10.849,0-19.677,8.828-19.677,19.679v8.891c-5.6,3.41-11.479,8.322-16.157,13.601c-5.571,6.287-12.211,16.146-12.211,27.411
				c0,6.325,2.176,11.741,6.292,15.662c0.401,0.382,0.816,0.744,1.244,1.088c-1.629,8.197-2.361,16.925-2.053,25.147
				c0.466,12.426,3.294,23.082,8.181,30.813c3.742,5.923,8.754,10.255,14.705,12.773v56.707H12.214
				C5.48,449.765,0,455.246,0,461.981v15.302c0,6.734,5.48,12.214,12.214,12.214h487.573c6.734,0,12.214-5.48,12.214-12.214v-15.302
				C512,455.246,506.52,449.765,499.786,449.765z M88.305,373.603c-0.443-0.565-0.875-1.156-1.283-1.799
				c-6.204-9.819-6.909-27.092-4.476-41.706c1.977,0.26,3.918,0.393,5.759,0.449V373.603z M88.306,314.629
				c-4.286-0.172-8.977-0.844-11.123-2.89c-0.636-0.605-1.367-1.628-1.367-4.166c0-6.915,5.82-15.049,12.49-21.18V314.629z
				 M40.185,136.732c-1.434,0-2.646-1.212-2.646-2.646V41.026c0-1.434,1.212-2.646,2.646-2.646h69.612l-55.161,98.351H40.185z
				 M72.838,136.732l55.161-98.351h38.912l-55.161,98.351H72.838z M129.953,136.732l55.161-98.351h38.912l-55.161,98.351H129.953z
				 M187.068,136.732l55.16-98.351h229.226c1.434,0,2.646,1.212,2.646,2.646v93.059c0,1.435-1.212,2.646-2.646,2.646H187.068z
				 M425.885,152.609v166.577H352.85V152.609H425.885z M332.738,337.709c0-1.434,1.212-2.646,2.646-2.646h107.967
				c1.434,0,2.646,1.212,2.646,2.646v112.055H332.738V337.709z M250.053,286.394c6.67,6.13,12.491,14.265,12.491,21.18
				c0,2.538-0.73,3.561-1.366,4.166c-2.147,2.047-6.838,2.718-11.125,2.889V286.394z M250.052,330.546h0.001
				c1.841-0.056,3.782-0.188,5.76-0.449c2.433,14.615,1.729,31.887-4.476,41.706c-0.408,0.645-0.839,1.235-1.285,1.799V330.546z
				 M104.184,257.671c0-2.061,1.74-3.802,3.8-3.802h122.392c2.06,0,3.801,1.741,3.801,3.802v78.259H104.184V257.671z
				 M234.176,351.806v34.7h-57.058v-34.7H234.176z M104.184,351.806h57.057v34.7h-57.057V351.806z M104.184,402.383h129.993v47.382
				h-20.06v-33.407h-16.936v33.407h-56v-33.407h-16.936v33.407h-20.062V402.383z M496.123,473.62H15.877v-7.978h480.246V473.62z"/>
			<circle cx="425.885" cy="356.218" r="7.409"/>
			<path d="M212.826,272.483h-87.293c-4.385,0-7.939,3.553-7.939,7.939v31.609c0,4.385,3.553,7.939,7.939,7.939h87.293
				c4.385,0,7.939-3.553,7.939-7.939v-31.609C220.765,276.036,217.212,272.483,212.826,272.483z M204.888,304.092h-71.416V288.36
				h71.416V304.092z"/>
			<path d="M387.783,51.874c-2.349,0-4.577,1.039-6.085,2.841c-5.365,6.405-22.87,28.346-22.87,41.795
				c0,15.967,12.99,28.957,28.956,28.957s28.957-12.99,28.957-28.957c0-13.449-17.505-35.39-22.87-41.795
				C392.361,52.913,390.131,51.874,387.783,51.874z M387.783,109.589c-7.211,0-13.078-5.868-13.078-13.08
				c0-3.404,5.058-13.049,13.078-23.876c8.02,10.827,13.08,20.472,13.08,23.876C400.862,103.721,394.995,109.589,387.783,109.589z"
				/>
			<circle cx="389.367" cy="356.218" r="7.409"/>
			<path d="M191.648,373.433h28c4.385,0,7.939-3.553,7.939-7.939s-3.553-7.939-7.939-7.939h-28c-4.385,0-7.939,3.553-7.939,7.939
				S187.263,373.433,191.648,373.433z"/>
			<circle cx="352.85" cy="356.218" r="7.409"/>
		</g>
	</g>
</g>
<g>
</g>
<g>
</g>
<g>
</g>
<g>
</g>
<g>
</g>
<g>
</g>
<g>
</g>
<g>
</g>
<g>
</g>
<g>
</g>
<g>
</g>
<g>
</g>
<g>
</g>
<g>
</g>
<g>
</g>
</svg>
