<?xml version="1.0" encoding="iso-8859-1"?>
<!-- Generator: Adobe Illustrator 19.0.0, SVG Export Plug-In . SVG Version: 6.00 Build 0)  -->
<svg version="1.1" id="Layer_1" xmlns="http://www.w3.org/2000/svg" xmlns:xlink="http://www.w3.org/1999/xlink" x="0px" y="0px"
	 viewBox="0 0 496 496" style="enable-background:new 0 0 496 496;" xml:space="preserve">
<g>
	<g>
		<g>
			<path d="M260,224h-4v-16h-16v16h-4c-19.848,0-36,16.152-36,36c0,19.848,16.152,36,36,36h24c11.024,0,20,8.976,20,20
				s-8.976,20-20,20h-24c-11.024,0-20-8.976-20-20v-4h-16v4c0,19.848,16.152,36,36,36h4v16h16v-16h4c19.848,0,36-16.152,36-36
				c0-19.848-16.152-36-36-36h-24c-11.024,0-20-8.976-20-20s8.976-20,20-20h24c11.024,0,20,8.976,20,20v4h16v-4
				C296,240.152,279.848,224,260,224z"/>
			<rect x="304" y="280" width="16" height="16"/>
			<rect x="176" y="280" width="16" height="16"/>
			<path d="M460.288,208c-2-10.624-4.832-21.168-8.464-31.496l30.952-17.864l-40-69.28l-30.992,17.88
				c-7.088-8.232-14.8-15.952-23.032-23.032l17.88-30.992l-69.28-40l-17.864,30.952c-10.32-3.624-20.864-6.456-31.488-8.456V0h-80
				v35.712c-10.624,2-21.168,4.832-31.496,8.464L158.64,13.224l-69.28,40l17.88,30.992c-8.232,7.088-15.952,14.8-23.032,23.032
				L53.224,89.36l-40,69.28l30.952,17.864c-3.632,10.328-6.464,20.872-8.464,31.496H0v80h35.712c2,10.624,4.832,21.168,8.464,31.496
				L13.224,337.36l40,69.28l30.992-17.88c7.088,8.232,14.8,15.952,23.032,23.032l-17.88,30.992l69.28,40l17.864-30.952
				c10.32,3.632,20.864,6.464,31.496,8.464V496h80v-35.712c10.624-2,21.168-4.832,31.496-8.464l17.864,30.952l69.28-40
				l-17.88-30.992c8.232-7.088,15.952-14.8,23.032-23.032l30.992,17.88l40-69.28l-30.952-17.864
				c3.632-10.32,6.464-20.864,8.464-31.496H496V208H460.288z M480,272h-33.312l-1.048,6.776c-2.168,14-5.904,27.928-11.12,41.376
				l-2.48,6.392l28.88,16.672l-24,41.568l-28.888-16.68l-4.296,5.328c-8.976,11.128-19.168,21.32-30.296,30.296l-5.328,4.296
				l16.68,28.888l-41.568,24l-16.672-28.872l-6.392,2.48c-13.456,5.216-27.376,8.952-41.376,11.12L272,446.688V480h-48v-33.312
				l-6.776-1.048c-14-2.168-27.928-5.904-41.376-11.12l-6.392-2.48l-16.672,28.872l-41.568-24l16.68-28.888l-5.328-4.296
				c-11.128-8.976-21.32-19.168-30.296-30.296l-4.296-5.328l-28.888,16.68l-24-41.568l28.872-16.672l-2.48-6.392
				c-5.216-13.456-8.952-27.376-11.12-41.376L49.312,272H16v-48h33.312l1.048-6.776c2.168-14,5.904-27.928,11.12-41.376l2.48-6.392
				l-28.872-16.672l24-41.568l28.888,16.68l4.296-5.328c8.976-11.128,19.168-21.32,30.296-30.296l5.328-4.296l-16.68-28.888
				l41.568-24l16.672,28.872l6.392-2.48c13.456-5.216,27.376-8.952,41.376-11.12L224,49.312V16h48v33.312l6.776,1.048
				c14,2.168,27.928,5.904,41.376,11.12l6.392,2.48l16.672-28.872l41.568,24l-16.68,28.888l5.328,4.296
				c11.128,8.976,21.32,19.168,30.296,30.296l4.296,5.328l28.888-16.68l24,41.568l-28.872,16.672l2.48,6.392
				c5.216,13.456,8.952,27.376,11.12,41.376l1.048,6.776H480V272z"/>
			<path d="M266.496,105.344L248,71.2l-18.496,34.144C157.672,114.528,104,175.016,104,248c0,37.464,14.344,72.792,40.32,99.768
				c16.52,40,55.904,68.232,101.792,68.232h3.768c45.888,0,85.272-28.24,101.792-68.232C377.656,320.792,392,285.464,392,248
				C392,175.016,338.328,114.528,266.496,105.344z M136,305.88c0,1.456,0.16,2.872,0.216,4.312C125.696,291.36,120,270.112,120,248
				c0-60.832,41.96-111.896,99.816-124.768l-70.52,130.2C140.6,269.496,136,287.632,136,305.88z M249.88,400h-3.768
				C194.224,400,152,357.776,152,305.88c0-15.6,3.928-31.104,11.36-44.832L248,104.8l84.64,156.256
				c7.432,13.728,11.36,29.232,11.36,44.832C344,357.776,301.776,400,249.88,400z M359.784,310.192
				c0.056-1.44,0.216-2.856,0.216-4.312c0-18.256-4.6-36.384-13.296-52.448l-70.52-130.2C334.04,136.104,376,187.168,376,248
				C376,270.112,370.304,291.36,359.784,310.192z"/>
		</g>
	</g>
</g>
<g>
</g>
<g>
</g>
<g>
</g>
<g>
</g>
<g>
</g>
<g>
</g>
<g>
</g>
<g>
</g>
<g>
</g>
<g>
</g>
<g>
</g>
<g>
</g>
<g>
</g>
<g>
</g>
<g>
</g>
</svg>
